<svg width="51" height="29" viewBox="0 0 51 29" fill="none" xmlns="http://www.w3.org/2000/svg">
<path d="M17.5829 11.1495C17.0949 11.1495 16.6509 11.0735 16.2509 10.9215C15.8589 10.7615 15.5309 10.5415 15.2669 10.2615C15.0109 9.9735 14.8429 9.6415 14.7629 9.2655L15.3629 8.6295C15.3869 8.8615 15.4909 9.0975 15.6749 9.3375C15.8589 9.5775 16.1109 9.7775 16.4309 9.9375C16.7589 10.0895 17.1389 10.1655 17.5709 10.1655C17.9389 10.1655 18.2709 10.1055 18.5669 9.9855C18.8629 9.8575 19.0989 9.6815 19.2749 9.4575C19.4509 9.2335 19.5389 8.9735 19.5389 8.6775C19.5389 8.3495 19.4309 8.0695 19.2149 7.8375C18.9989 7.6055 18.6909 7.4295 18.2909 7.3095C17.8989 7.1895 17.4309 7.1295 16.8869 7.1295H16.4789V6.2295H16.8869C17.6229 6.2295 18.2109 6.1135 18.6509 5.8815C19.0909 5.6415 19.3109 5.2855 19.3109 4.8135C19.3109 4.5095 19.2269 4.2495 19.0589 4.0335C18.8989 3.8095 18.6829 3.6415 18.4109 3.5295C18.1469 3.4095 17.8629 3.3495 17.5589 3.3495C17.0469 3.3495 16.6109 3.4655 16.2509 3.6975C15.8989 3.9215 15.6509 4.1855 15.5069 4.4895L14.7989 3.7575C14.9589 3.4775 15.1829 3.2375 15.4709 3.0375C15.7589 2.8375 16.0829 2.6855 16.4429 2.5815C16.8029 2.4695 17.1709 2.4135 17.5469 2.4135C18.0989 2.4135 18.5909 2.5175 19.0229 2.7255C19.4629 2.9335 19.8069 3.2135 20.0549 3.5655C20.3029 3.9175 20.4269 4.3175 20.4269 4.7655C20.4269 5.0855 20.3629 5.3735 20.2349 5.6295C20.1069 5.8775 19.9189 6.0855 19.6709 6.2535C19.4229 6.4215 19.1229 6.5495 18.7709 6.6375C19.1469 6.7015 19.4749 6.8375 19.7549 7.0455C20.0349 7.2535 20.2509 7.5095 20.4029 7.8135C20.5549 8.1175 20.6309 8.4495 20.6309 8.8095C20.6309 9.3055 20.4869 9.7295 20.1989 10.0815C19.9109 10.4255 19.5349 10.6895 19.0709 10.8735C18.6149 11.0575 18.1189 11.1495 17.5829 11.1495ZM27.9745 8.2215C27.9745 7.6855 27.8425 7.2015 27.5785 6.7695C27.3225 6.3375 26.9705 5.9935 26.5225 5.7375C26.0825 5.4815 25.5865 5.3535 25.0345 5.3535C24.7065 5.3535 24.3945 5.4095 24.0985 5.5215C23.8105 5.6335 23.5585 5.7935 23.3425 6.0015C23.1265 6.2015 22.9585 6.4415 22.8385 6.7215C22.8465 6.0175 22.9385 5.4175 23.1145 4.9215C23.2985 4.4255 23.5545 4.0455 23.8825 3.7815C24.2105 3.5175 24.5905 3.3855 25.0225 3.3855C25.4465 3.3855 25.8305 3.4975 26.1745 3.7215C26.5185 3.9375 26.7785 4.2335 26.9545 4.6095L27.6025 3.9735C27.3465 3.5015 26.9905 3.1335 26.5345 2.8695C26.0865 2.5975 25.5865 2.4615 25.0345 2.4615C24.3945 2.4615 23.8345 2.6495 23.3545 3.0255C22.8745 3.3935 22.5025 3.9495 22.2385 4.6935C21.9745 5.4375 21.8425 6.3695 21.8425 7.4895C21.8425 8.2495 21.9705 8.9055 22.2265 9.4575C22.4905 10.0095 22.8545 10.4335 23.3185 10.7295C23.7825 11.0175 24.3185 11.1615 24.9265 11.1615C25.5025 11.1615 26.0185 11.0295 26.4745 10.7655C26.9385 10.5015 27.3025 10.1495 27.5665 9.7095C27.8385 9.2615 27.9745 8.7655 27.9745 8.2215ZM24.9385 10.2495C24.5705 10.2495 24.2305 10.1575 23.9185 9.9735C23.6145 9.7895 23.3705 9.5455 23.1865 9.2415C23.0025 8.9295 22.9105 8.5895 22.9105 8.2215C22.9105 7.8535 23.0025 7.5175 23.1865 7.2135C23.3705 6.9095 23.6145 6.6655 23.9185 6.4815C24.2305 6.2975 24.5705 6.2055 24.9385 6.2055C25.3065 6.2055 25.6425 6.2975 25.9465 6.4815C26.2585 6.6655 26.5065 6.9095 26.6905 7.2135C26.8745 7.5175 26.9665 7.8535 26.9665 8.2215C26.9665 8.5895 26.8745 8.9295 26.6905 9.2415C26.5065 9.5455 26.2585 9.7895 25.9465 9.9735C25.6425 10.1575 25.3065 10.2495 24.9385 10.2495ZM32.6478 11.1615C32.0638 11.1455 31.5478 11.0055 31.0998 10.7415C30.6518 10.4775 30.2758 10.1335 29.9718 9.7095C29.6758 9.2775 29.4518 8.8135 29.2998 8.3175C29.1478 7.8135 29.0718 7.3215 29.0718 6.8415C29.0718 6.3295 29.1518 5.8175 29.3118 5.3055C29.4798 4.7935 29.7198 4.3295 30.0318 3.9135C30.3438 3.4895 30.7198 3.1535 31.1598 2.9055C31.5998 2.6495 32.0958 2.5215 32.6478 2.5215C33.2398 2.5215 33.7558 2.6575 34.1958 2.9295C34.6438 3.2015 35.0158 3.5535 35.3118 3.9855C35.6158 4.4175 35.8438 4.8855 35.9958 5.3895C36.1478 5.8935 36.2238 6.3775 36.2238 6.8415C36.2238 7.3615 36.1398 7.8775 35.9718 8.3895C35.8118 8.8935 35.5758 9.3535 35.2638 9.7695C34.9518 10.1855 34.5758 10.5215 34.1358 10.7775C33.6958 11.0255 33.1998 11.1535 32.6478 11.1615ZM30.1638 6.8415C30.1798 7.2335 30.2398 7.6255 30.3438 8.0175C30.4478 8.4095 30.6038 8.7695 30.8118 9.0975C31.0198 9.4255 31.2758 9.6895 31.5798 9.8895C31.8838 10.0895 32.2398 10.1895 32.6478 10.1895C33.0718 10.1895 33.4398 10.0855 33.7518 9.8775C34.0638 9.6615 34.3198 9.3855 34.5198 9.0495C34.7278 8.7055 34.8798 8.3415 34.9758 7.9575C35.0798 7.5655 35.1318 7.1935 35.1318 6.8415C35.1318 6.4495 35.0758 6.0575 34.9638 5.6655C34.8598 5.2735 34.6998 4.9135 34.4838 4.5855C34.2678 4.2575 34.0078 3.9935 33.7038 3.7935C33.3998 3.5935 33.0478 3.4935 32.6478 3.4935C32.2238 3.4935 31.8558 3.6015 31.5438 3.8175C31.2318 4.0255 30.9718 4.3015 30.7638 4.6455C30.5638 4.9815 30.4118 5.3455 30.3078 5.7375C30.2118 6.1215 30.1638 6.4895 30.1638 6.8415ZM37.357 3.3975C37.357 3.1015 37.461 2.8535 37.669 2.6535C37.877 2.4535 38.129 2.3535 38.425 2.3535C38.729 2.3535 38.981 2.4535 39.181 2.6535C39.389 2.8535 39.493 3.1015 39.493 3.3975C39.493 3.7175 39.389 3.9815 39.181 4.1895C38.981 4.3895 38.729 4.4895 38.425 4.4895C38.129 4.4895 37.877 4.3855 37.669 4.1775C37.461 3.9695 37.357 3.7095 37.357 3.3975ZM38.065 3.0615C37.969 3.1735 37.921 3.2935 37.921 3.4215C37.921 3.5575 37.969 3.6735 38.065 3.7695C38.169 3.8735 38.289 3.9255 38.425 3.9255C38.577 3.9255 38.697 3.8735 38.785 3.7695C38.825 3.7295 38.857 3.6775 38.881 3.6135C38.913 3.5495 38.929 3.4855 38.929 3.4215C38.929 3.3495 38.913 3.2855 38.881 3.2295C38.857 3.1655 38.825 3.1095 38.785 3.0615C38.745 3.0135 38.689 2.9775 38.617 2.9535C38.553 2.9295 38.489 2.9175 38.425 2.9175C38.281 2.9175 38.161 2.9655 38.065 3.0615Z" fill="#CACACD"/>
<path d="M25.7109 22.7993C12.18 22.7993 1.21094 18.5727 1.21094 13.3589C1.21094 10.9765 3.50124 8.80025 7.27974 7.13916" stroke="#CACACD" stroke-linecap="round"/>
<path d="M31.3301 22.5496C42.1528 21.571 50.2108 17.8275 50.2108 13.3587C50.2108 10.9295 47.8295 8.71448 43.9172 7.0415" stroke="#CACACD" stroke-linecap="round"/>
<path d="M20.3164 17.1797L25.7109 22.5742L20.3164 27.9687" stroke="#CACACD" stroke-linecap="round"/>
</svg>
