<svg width="17" height="19" viewBox="0 0 17 19" fill="none" xmlns="http://www.w3.org/2000/svg">
<path d="M15.8858 5.43921C15.8669 5.14258 15.6234 4.91187 15.3284 4.91187H12.3743V4.03223C12.3743 2.27075 10.7167 0.837402 8.67969 0.837402C6.64271 0.837402 4.98507 2.27075 4.98507 4.03223V4.91187H2.03098C1.73593 4.91187 1.49248 5.14258 1.47359 5.43921L0.68074 18.2397C0.671292 18.395 0.725796 18.5466 0.831169 18.6602C0.936543 18.7729 1.08407 18.8374 1.23813 18.8374H16.1212C16.2753 18.8374 16.4228 18.7729 16.5282 18.6602C16.6336 18.5466 16.6881 18.395 16.6786 18.2397L15.8858 5.43921ZM6.1013 4.03223C6.1013 2.89111 7.25823 1.9624 8.67969 1.9624C10.1011 1.9624 11.2581 2.89111 11.2581 4.03223V4.91187H6.1013V4.03223ZM4.98507 6.03687V7.25854C4.98507 7.56909 5.23506 7.82104 5.54319 7.82104C5.85131 7.82104 6.1013 7.56909 6.1013 7.25854V6.03687H11.2581V7.25854C11.2581 7.56909 11.5081 7.82104 11.8162 7.82104C12.1243 7.82104 12.3743 7.56909 12.3743 7.25854V6.03687H14.8037L15.2873 13.8372H2.07208L2.55566 6.03687H4.98507ZM1.83186 17.7124L2.02562 14.5872H15.3338L15.5275 17.7124H1.83186Z" fill="#36373A"/>
</svg>
