<svg width="27" height="29" viewBox="0 0 27 29" fill="none" xmlns="http://www.w3.org/2000/svg">
<path d="M15.3542 0.826219C14.2018 0.160791 12.3156 0.160791 11.1632 0.826219L2.86893 5.61488C1.71653 6.28031 0.773438 7.91363 0.773438 9.24449V18.8218C0.773438 20.1527 1.71653 21.786 2.86893 22.4514L11.1632 27.2401C12.3156 27.9055 14.2018 27.9055 15.3542 27.2401L23.6484 22.4514C24.8008 21.786 25.7439 20.1527 25.7439 18.8218V9.24449C25.7439 7.91363 24.8008 6.28031 23.6484 5.61488L15.3542 0.826219Z" fill="#CACACD"/>
<path d="M13.2584 28.0415C12.4121 28.0415 11.6142 27.8503 11.0117 27.5013L2.71743 22.7126C1.47852 21.9976 0.470703 20.2524 0.470703 18.8211V9.24437C0.470703 7.8137 1.47913 6.06786 2.71743 5.35283L11.0117 0.564167C12.2167 -0.132717 14.3001 -0.132717 15.5051 0.564167L23.7994 5.35283C25.0383 6.06786 26.0461 7.8131 26.0461 9.24437V18.8217C26.0461 20.2524 25.0377 21.9982 23.7994 22.7132L15.5051 27.5019C14.9026 27.8503 14.1047 28.0415 13.2584 28.0415ZM13.2584 0.629501C12.5168 0.629501 11.8265 0.792833 11.3142 1.08804L3.0199 5.8767C1.9661 6.48527 1.07564 8.02785 1.07564 9.24437V18.8217C1.07564 20.0388 1.9661 21.5814 3.0199 22.1894L11.3142 26.978C12.3383 27.569 14.1779 27.569 15.2027 26.978L23.4969 22.1894C24.5507 21.5808 25.4412 20.0382 25.4412 18.8217V9.24437C25.4412 8.02724 24.5507 6.48466 23.4969 5.8767L15.2027 1.08804C14.6903 0.792228 14.0001 0.629501 13.2584 0.629501Z" fill="#CACACD"/>
<path d="M13.2586 12.7176C12.5793 12.7176 11.926 12.5651 11.4656 12.2996L3.17136 7.5103C2.81445 7.30402 2.60938 7.05418 2.60938 6.82431C2.60938 6.59504 2.81445 6.34459 3.17136 6.13892L11.4656 1.34965C11.926 1.08408 12.5793 0.931641 13.2586 0.931641C13.938 0.931641 14.5913 1.08408 15.0517 1.34965L23.3459 6.13892C23.7028 6.34459 23.9079 6.59504 23.9079 6.82431C23.9079 7.05418 23.7028 7.30402 23.3459 7.5103L15.0517 12.299C14.5913 12.5651 13.938 12.7176 13.2586 12.7176Z" fill="white"/>
<path d="M11.9938 26.9192C11.8123 26.9192 11.5951 26.849 11.3652 26.7166L3.07037 21.9273C2.09824 21.3665 1.27734 19.9443 1.27734 18.8216V9.24423C1.27734 8.97685 1.33179 8.35498 1.83691 8.35498C2.01778 8.35498 2.23556 8.42515 2.46544 8.55824L10.7597 13.3469C11.7312 13.9083 12.5527 15.3305 12.5527 16.4526V26.0306C12.5527 26.3433 12.485 26.5998 12.3622 26.7535C12.2714 26.8666 12.1541 26.9192 11.9938 26.9192Z" fill="white"/>
<path d="M14.4228 26.9192C13.9177 26.9192 13.8633 26.2979 13.8633 26.0306V16.4526C13.8633 15.3305 14.6842 13.9083 15.6563 13.3469L23.9506 8.55824C24.1804 8.42515 24.3982 8.35498 24.5791 8.35498C25.0842 8.35498 25.1387 8.97685 25.1387 9.24423V18.8216C25.1387 19.9437 24.3178 21.3665 23.3456 21.9273L15.0514 26.7166C14.8215 26.849 14.6043 26.9192 14.4228 26.9192Z" fill="white"/>
<path d="M13.258 7.68106C12.4927 7.68106 11.8467 7.28907 11.8467 6.82448C11.8467 6.35989 12.4934 5.96729 13.258 5.96729C14.0226 5.96729 14.6693 6.35989 14.6693 6.82448C14.6693 7.28907 14.0232 7.68106 13.258 7.68106Z" fill="#CACACD"/>
<path d="M3.06264 20.3053C2.59805 20.3053 2.20605 19.73 2.20605 19.0494C2.20605 18.3689 2.59805 17.793 3.06264 17.793C3.52723 17.793 3.91923 18.3683 3.91923 19.0494C3.91923 19.7306 3.52663 20.3053 3.06264 20.3053Z" fill="#CACACD"/>
<path d="M23.1515 20.3053C22.6869 20.3053 22.2949 19.73 22.2949 19.0494C22.2949 18.3689 22.6869 17.793 23.1515 17.793C23.6161 17.793 24.0081 18.3683 24.0081 19.0494C24.0081 19.7306 23.6161 20.3053 23.1515 20.3053Z" fill="#CACACD"/>
<path d="M3.06264 13.0836C2.59805 13.0836 2.20605 12.5083 2.20605 11.8277C2.20605 11.1466 2.59805 10.5713 3.06264 10.5713C3.52723 10.5713 3.91923 11.1466 3.91923 11.8277C3.91923 12.5083 3.52663 13.0836 3.06264 13.0836Z" fill="#CACACD"/>
<path d="M10.1837 17.7336C9.71915 17.7336 9.32715 17.1583 9.32715 16.4772C9.32715 15.796 9.71915 15.2207 10.1837 15.2207C10.6483 15.2207 11.0409 15.796 11.0409 16.4772C11.0403 17.1583 10.6483 17.7336 10.1837 17.7336Z" fill="#CACACD"/>
<path d="M16.258 17.7336C15.7934 17.7336 15.4014 17.1583 15.4014 16.4772C15.4014 15.796 15.7934 15.2207 16.258 15.2207C16.7225 15.2207 17.1151 15.796 17.1151 16.4772C17.1145 17.1583 16.7219 17.7336 16.258 17.7336Z" fill="#CACACD"/>
<path d="M10.1837 24.4011C9.71915 24.4011 9.32715 23.8258 9.32715 23.1446C9.32715 22.4635 9.71915 21.8882 10.1837 21.8882C10.6483 21.8882 11.0409 22.4635 11.0409 23.1446C11.0409 23.8258 10.6483 24.4011 10.1837 24.4011Z" fill="#CACACD"/>
</svg>
