<svg width="21" height="21" viewBox="0 0 21 21" fill="none" xmlns="http://www.w3.org/2000/svg">
<g clip-path="url(#clip0)">
<path d="M20.2363 2.73372L17.903 0.400391C17.5697 0.0670573 17.0697 0.0670573 16.7363 0.400391L0.736328 16.4004C0.402995 16.7337 0.402995 17.2337 0.736328 17.5671L3.06966 19.9004C3.40299 20.2337 3.90299 20.2337 4.23633 19.9004L20.2363 3.90039C20.5697 3.56706 20.5697 3.06706 20.2363 2.73372ZM3.65299 18.1504L2.48633 16.9837L13.153 6.31706L14.3197 7.48372L3.65299 18.1504ZM14.903 6.90039L13.7363 5.73372L17.2363 2.23372L18.403 3.40039L14.903 6.90039Z" fill="white"/>
<path d="M10.4863 5.15039L11.153 3.31706L12.9863 2.65039L11.153 1.98372L10.4863 0.150391L9.81966 1.98372L7.98633 2.65039L9.81966 3.31706L10.4863 5.15039Z" fill="white"/>
<path d="M4.65332 7.65039L5.31999 5.81706L7.15332 5.15039L5.31999 4.48372L4.65332 2.65039L3.98665 4.48372L2.15332 5.15039L3.98665 5.81706L4.65332 7.65039Z" fill="white"/>
<path d="M17.9863 10.1504L17.3197 11.9837L15.4863 12.6504L17.3197 13.3171L17.9863 15.1504L18.653 13.3171L20.4863 12.6504L18.653 11.9837L17.9863 10.1504Z" fill="white"/>
</g>
<defs>
<clipPath id="clip0">
<rect width="20" height="20" fill="white" transform="translate(0.486328 0.150391)"/>
</clipPath>
</defs>
</svg>
