<svg width="16" height="18" viewBox="0 0 16 18" fill="none" xmlns="http://www.w3.org/2000/svg">
<path d="M15.2061 4.60181C15.1872 4.30518 14.9438 4.07446 14.6487 4.07446H11.6946V3.19482C11.6946 1.43335 10.037 0 8 0C5.96302 0 4.30538 1.43335 4.30538 3.19482V4.07446H1.35129C1.05624 4.07446 0.812792 4.30518 0.793898 4.60181L0.00105205 17.4023C-0.00839524 17.5576 0.0461084 17.7092 0.151482 17.8228C0.256856 17.9355 0.404379 18 0.558442 18H15.4416C15.5956 18 15.7431 17.9355 15.8485 17.8228C15.9539 17.7092 16.0084 17.5576 15.9989 17.4023L15.2061 4.60181ZM5.42162 3.19482C5.42162 2.05371 6.57855 1.125 8 1.125C9.42145 1.125 10.5784 2.05371 10.5784 3.19482V4.07446H5.42162V3.19482ZM4.30538 5.19946V6.42114C4.30538 6.73169 4.55537 6.98364 4.8635 6.98364C5.17163 6.98364 5.42162 6.73169 5.42162 6.42114V5.19946H10.5784V6.42114C10.5784 6.73169 10.8284 6.98364 11.1365 6.98364C11.4446 6.98364 11.6946 6.73169 11.6946 6.42114V5.19946H14.124L14.6076 12.9998H1.39239L1.87598 5.19946H4.30538ZM1.15217 16.875L1.34593 13.7498H14.6541L14.8478 16.875H1.15217Z" fill="#36373A"/>
</svg>
