<svg width="25" height="11" viewBox="0 0 25 11" fill="none" xmlns="http://www.w3.org/2000/svg">
<path d="M22.8581 2.21502C22.7575 2.08216 22.5923 2.00245 22.4198 2.00245H19.0789V0.687174C19.0789 0.41482 18.8346 0.188965 18.54 0.188965H6.4334C6.13882 0.188965 5.89453 0.41482 5.89453 0.687174V8.73824C5.89453 9.0106 6.13882 9.23645 6.4334 9.23645H7.9566C8.23682 10.1399 9.14212 10.8108 10.2055 10.8108C11.2689 10.8108 12.1742 10.1465 12.4544 9.23645H18.425C18.7052 10.1399 19.6105 10.8108 20.6739 10.8108C21.7373 10.8108 22.6426 10.1465 22.9228 9.23645H24.0365C24.331 9.23645 24.5753 9.0106 24.5753 8.73824V4.63964C24.5753 4.53335 24.5394 4.43371 24.4747 4.354L22.8581 2.21502ZM23.5048 4.78578H21.0906V3.00551H22.1468L23.5048 4.78578ZM6.97227 1.19203H18.0011V8.24667H12.5047C12.2963 7.24361 11.3479 6.48633 10.2055 6.48633C9.06308 6.48633 8.10749 7.24361 7.90631 8.24667H6.97227V1.19203ZM10.2055 9.81437C9.50855 9.81437 8.94094 9.28959 8.94094 8.64524C8.94094 8.00089 9.50855 7.47611 10.2055 7.47611C10.9024 7.47611 11.47 8.00089 11.47 8.64524C11.47 9.28959 10.9024 9.81437 10.2055 9.81437ZM20.6811 9.81437C19.9842 9.81437 19.4166 9.28959 19.4166 8.64524C19.4166 8.00089 19.9842 7.47611 20.6811 7.47611C21.378 7.47611 21.9456 8.00089 21.9456 8.64524C21.9456 9.28959 21.378 9.81437 20.6811 9.81437ZM22.9803 8.24667C22.7719 7.24361 21.8235 6.48633 20.6811 6.48633C20.0632 6.48633 19.4956 6.71219 19.0789 7.07754V3.00551H20.0057V5.28399C20.0057 5.55634 20.25 5.7822 20.5446 5.7822H23.512V8.24667H22.9803Z" fill="white"/>
<path d="M0.71465 1.19133H4.55858C4.85317 1.19133 5.09745 0.965456 5.09745 0.693078C5.09745 0.420699 4.85317 0.194824 4.55858 0.194824H0.71465C0.420069 0.194824 0.175781 0.420699 0.175781 0.693078C0.175781 0.965456 0.420069 1.19133 0.71465 1.19133Z" fill="white"/>
<path d="M4.55863 2.00928H1.59844C1.30386 2.00928 1.05957 2.23513 1.05957 2.50748C1.05957 2.77983 1.30386 3.00568 1.59844 3.00568H4.55863C4.85321 3.00568 5.0975 2.77983 5.0975 2.50748C5.0975 2.23513 4.86039 2.00928 4.55863 2.00928Z" fill="white"/>
<path d="M4.55832 3.82275H2.69024C2.39565 3.82275 2.15137 4.04861 2.15137 4.32096C2.15137 4.59331 2.39565 4.81916 2.69024 4.81916H4.55832C4.8529 4.81916 5.09719 4.59331 5.09719 4.32096C5.09719 4.04861 4.86008 3.82275 4.55832 3.82275Z" fill="white"/>
<path d="M4.55856 5.63623H3.91192C3.61733 5.63623 3.37305 5.86208 3.37305 6.13443C3.37305 6.40678 3.61733 6.63263 3.91192 6.63263H4.55856C4.85314 6.63263 5.09743 6.40678 5.09743 6.13443C5.09743 5.86208 4.86033 5.63623 4.55856 5.63623Z" fill="white"/>
</svg>
