<svg width="15" height="20" viewBox="0 0 15 20" fill="none" xmlns="http://www.w3.org/2000/svg">
<path d="M7.11094 0.960938C3.2843 0.960938 0.210938 4.06443 0.210938 7.86094C0.210938 11.6574 7.11094 19.0395 7.11094 19.0395C7.11094 19.0395 14.0109 11.6876 14.0109 7.86094C14.0109 4.0343 10.9376 0.960938 7.11094 0.960938ZM7.11094 18.1356C6.47819 17.4426 5.30308 16.0867 4.12797 14.4898C1.95854 11.5671 0.813558 9.27709 0.813558 7.83081C0.813558 4.36574 3.64587 1.53343 7.11094 1.53343C10.576 1.53343 13.4083 4.39587 13.4083 7.86094C13.4083 9.27709 12.2633 11.5972 10.0939 14.5199C8.9188 16.0867 7.74369 17.4426 7.11094 18.1356Z" fill="#B5B5B5"/>
<path d="M7.11059 4.27539C5.30273 4.27539 3.85645 5.72168 3.85645 7.52954C3.85645 9.3374 5.30273 10.7837 7.11059 10.7837C8.91845 10.7837 10.3647 9.3374 10.3647 7.52954C10.3647 5.75181 8.91845 4.27539 7.11059 4.27539ZM8.97872 9.42779C8.49662 9.90989 7.83374 10.2112 7.11059 10.2112C6.38745 10.2112 5.72457 9.90989 5.24247 9.42779C4.76037 8.9457 4.45907 8.28281 4.45907 7.55967C4.45907 6.83653 4.76037 6.17364 5.24247 5.69155C5.72457 5.20945 6.38745 4.90814 7.11059 4.90814C7.83374 4.90814 8.49662 5.20945 8.97872 5.69155C9.46081 6.17364 9.76212 6.83653 9.76212 7.55967C9.76212 8.28281 9.46081 8.9457 8.97872 9.42779Z" fill="#B5B5B5"/>
</svg>
