<svg width="21" height="21" viewBox="0 0 21 21" fill="none" xmlns="http://www.w3.org/2000/svg">
<g clip-path="url(#clip0)">
<path d="M10.2113 1.2373C4.91813 1.2373 0.611328 5.5441 0.611328 10.8373C0.611328 13.6737 1.84893 16.2261 3.81133 17.9849V17.9917L3.95053 18.1117C3.97493 18.1329 4.00173 18.1505 4.02653 18.1713C4.19893 18.3169 4.37653 18.4565 4.55893 18.5901C4.60813 18.6261 4.65733 18.6609 4.70733 18.6957C4.90093 18.8317 5.09893 18.9613 5.30213 19.0829C5.33613 19.1033 5.37093 19.1225 5.40493 19.1421C5.62773 19.2717 5.85533 19.3937 6.08893 19.5053C6.09133 19.5065 6.09373 19.5073 6.09613 19.5085C6.59573 19.7465 7.11973 19.9413 7.66213 20.0909C7.67213 20.0937 7.68213 20.0969 7.69213 20.0993C7.94853 20.1693 8.20933 20.2281 8.47373 20.2765C8.49853 20.2809 8.52293 20.2853 8.54773 20.2897C8.80293 20.3345 9.06133 20.3701 9.32333 20.3945C9.35333 20.3973 9.38333 20.3989 9.41293 20.4013C9.67653 20.4233 9.94213 20.4373 10.2113 20.4373C10.4805 20.4373 10.7461 20.4233 11.0097 20.4013C11.0397 20.3989 11.0697 20.3973 11.0993 20.3945C11.3613 20.3705 11.6197 20.3345 11.8749 20.2897C11.8997 20.2853 11.9241 20.2809 11.9489 20.2765C12.2133 20.2281 12.4741 20.1693 12.7305 20.0993C12.7405 20.0965 12.7505 20.0937 12.7605 20.0909C13.3029 19.9413 13.8269 19.7465 14.3265 19.5085C14.3289 19.5073 14.3313 19.5065 14.3337 19.5053C14.5673 19.3937 14.7949 19.2713 15.0177 19.1421C15.0521 19.1221 15.0865 19.1033 15.1205 19.0829C15.3241 18.9613 15.5221 18.8313 15.7153 18.6957C15.7649 18.6609 15.8145 18.6261 15.8637 18.5901C16.0461 18.4565 16.2237 18.3169 16.3961 18.1713C16.4209 18.1505 16.4477 18.1329 16.4721 18.1117L16.6113 17.9917V17.9849C18.5737 16.2257 19.8113 13.6737 19.8113 10.8373C19.8113 5.5441 15.5045 1.2373 10.2113 1.2373ZM10.2113 10.8373C8.44693 10.8373 7.01133 9.4017 7.01133 7.6373C7.01133 5.8729 8.44693 4.4373 10.2113 4.4373C11.9757 4.4373 13.4113 5.8729 13.4113 7.6373C13.4113 9.4017 11.9757 10.8373 10.2113 10.8373ZM11.4113 11.6373C13.8373 11.6373 15.8113 13.6113 15.8113 16.0373V17.6205C15.7945 17.6345 15.7769 17.6473 15.7601 17.6613C15.6021 17.7897 15.4401 17.9117 15.2745 18.0285C15.2377 18.0545 15.2017 18.0813 15.1649 18.1065C14.9861 18.2285 14.8025 18.3429 14.6157 18.4513C14.5817 18.4713 14.5473 18.4909 14.5129 18.5105C14.3169 18.6205 14.1173 18.7237 13.9137 18.8181C13.8925 18.8281 13.8709 18.8377 13.8493 18.8473C13.1849 19.1493 12.4849 19.3681 11.7645 19.4977C11.7417 19.5017 11.7189 19.5061 11.6961 19.5101C11.4693 19.5489 11.2405 19.5789 11.0101 19.6001C10.9785 19.6029 10.9465 19.6049 10.9145 19.6073C10.6813 19.6253 10.4469 19.6373 10.2113 19.6373C9.97573 19.6373 9.74133 19.6253 9.50813 19.6065C9.47653 19.6041 9.44453 19.6021 9.41253 19.5993C9.18213 19.5781 8.95333 19.5485 8.72653 19.5093C8.70373 19.5053 8.68093 19.5013 8.65813 19.4969C7.93773 19.3673 7.23773 19.1485 6.57333 18.8465C6.55173 18.8365 6.53013 18.8273 6.50893 18.8173C6.30533 18.7229 6.10573 18.6197 5.90973 18.5097C5.87533 18.4901 5.84133 18.4705 5.80693 18.4505C5.62013 18.3425 5.43653 18.2277 5.25773 18.1057C5.22053 18.0805 5.18453 18.0537 5.14813 18.0277C4.98253 17.9109 4.82053 17.7893 4.66253 17.6605C4.64573 17.6469 4.62813 17.6337 4.61133 17.6197V16.0373C4.61133 13.6113 6.58533 11.6373 9.01133 11.6373H11.4113ZM16.6113 16.8677V16.0373C16.6113 13.5289 14.8257 11.4297 12.4593 10.9433C13.5157 10.2229 14.2113 9.0097 14.2113 7.6373C14.2113 5.4317 12.4169 3.6373 10.2113 3.6373C8.00573 3.6373 6.21133 5.4317 6.21133 7.6373C6.21133 9.0097 6.90693 10.2229 7.96333 10.9433C5.59693 11.4297 3.81133 13.5289 3.81133 16.0373V16.8677C2.32493 15.2913 1.41133 13.1697 1.41133 10.8373C1.41133 5.9849 5.35893 2.0373 10.2113 2.0373C15.0637 2.0373 19.0113 5.9849 19.0113 10.8373C19.0113 13.1697 18.0977 15.2913 16.6113 16.8677Z" fill="#36373A"/>
</g>
<defs>
<clipPath id="clip0">
<rect width="20" height="20" fill="white" transform="translate(0.210938 0.837402)"/>
</clipPath>
</defs>
</svg>
